<?xml version="1.0" encoding="iso-8859-1"?>
<!-- Uploaded to: SVG Repo, www.svgrepo.com, Generator: SVG Repo Mixer Tools -->
<svg height="800px" width="800px" version="1.1" id="Layer_1" xmlns="http://www.w3.org/2000/svg" xmlns:xlink="http://www.w3.org/1999/xlink" 
	 viewBox="0 0 512.001 512.001" xml:space="preserve">
<defs>
	<!-- Linear gradient with German flag colors: black, red, gold (left to right) -->
	<linearGradient id="germanFlag" x1="0%" y1="0%" x2="100%" y2="0%">
		<stop offset="0%" style="stop-color:#000000;stop-opacity:1" />
		<stop offset="33.33%" style="stop-color:#000000;stop-opacity:1" />
		<stop offset="33.33%" style="stop-color:#DD0000;stop-opacity:1" />
		<stop offset="66.67%" style="stop-color:#DD0000;stop-opacity:1" />
		<stop offset="66.67%" style="stop-color:#FFCE00;stop-opacity:1" />
		<stop offset="100%" style="stop-color:#FFCE00;stop-opacity:1" />
	</linearGradient>
</defs>
<g>
	<g>
		<path fill="url(#germanFlag)" stroke="#000000" stroke-width="3" d="M501.318,299.729c5.899,0,10.684-4.783,10.684-10.683v-72.883c-0.001-61.77-50.253-112.022-112.022-112.022h-31.397
			c-0.859-1.01-1.749-1.992-2.686-2.929c-9.421-9.421-21.945-14.609-35.263-14.609c-20.106,0-39.011,7.831-53.231,22.051
			c-11.18,11.18-18.441,25.356-21.009,40.735h-64.195c-55.055,0-102.206,34.462-121.026,82.942h-8.694
			C28.028,232.33,0,260.358,0,294.809c0,5.901,4.783,10.683,10.683,10.683c5.901,0,10.684-4.783,10.684-10.683
			c0-22.669,18.443-41.111,41.111-41.111h2.464c-1.643,8.232-2.512,16.738-2.512,25.446v97.826v37.745
			c0,5.901,4.783,10.684,10.683,10.684h60.962h60.962c5.901,0,10.684-4.783,10.684-10.684v-37.745v-55.64h32.399v55.64v37.745
			c0,5.901,4.783,10.684,10.683,10.684h60.962h60.08c2.833,0,5.552-1.126,7.555-3.13c2.003-2.004,3.129-4.722,3.128-7.556
			l-0.033-137.61c15.529,2.253,29.86,9.405,41.155,20.698c13.846,13.847,21.472,32.258,21.472,51.842v65.074
			c0,5.901,4.784,10.683,10.684,10.683h47.512c5.899,0,10.684-4.783,10.684-10.683v-47.341c0-5.901-4.784-10.684-10.684-10.684
			c-5.899,0-10.683,4.783-10.683,10.684v36.657h-26.145v-54.391c0-25.29-9.848-49.067-27.729-66.95
			c-17.882-17.881-41.659-27.729-66.95-27.729c-24.86,0-48.24-9.682-65.827-27.258c-17.581-17.593-27.263-40.972-27.263-65.833
			c0-0.526,0.012-1.05,0.021-1.508c0.376-13.806,5.976-26.805,15.772-36.601c10.184-10.184,23.722-15.792,38.122-15.792
			c7.611,0,14.768,2.966,20.154,8.352c1.341,1.34,2.545,2.814,3.578,4.382c0.081,0.123,0.165,0.245,0.25,0.363
			c2.952,4.583,4.511,9.897,4.511,15.396v25.616c0,5.901,4.784,10.684,10.683,10.684c5.899,0,10.684-4.783,10.684-10.684v-25.616
			c0-3.717-0.409-7.387-1.209-10.955h20.695c49.987,0,90.654,40.667,90.654,90.654v72.883
			C490.634,294.946,495.418,299.729,501.318,299.729z M123.393,404.029H83.798v-16.378h39.595V404.029z M184.354,404.029h-39.595
			v-16.378h39.595V404.029z M184.354,366.285h-39.595v-44.956h39.595V366.285z M299.082,404.029h-39.596v-16.378h39.596V404.029z
			 M359.16,404.029h-38.711v-16.378h38.706L359.16,404.029z M359.15,366.285h-38.701v-44.956h4.37
			c12.94,0,24.853-4.449,34.318-11.882L359.15,366.285z M288.874,242.811c18.728,18.716,42.795,30.151,68.758,32.88
			c-4.299,14.036-17.383,24.272-32.813,24.272h-15.053c-5.899,0-10.684,4.784-10.684,10.684v55.64h-39.596v-55.64v-15.837
			c0-5.901-4.783-10.683-10.684-10.683c-5.9,0-10.683,4.783-10.683,10.683v5.154H134.075c-5.9,0-10.683,4.784-10.683,10.683v55.64
			H83.798v-87.142c0-59.766,48.629-108.388,108.401-108.388h63.495C257.77,197.973,269.364,223.288,288.874,242.811z"/>
	</g>
</g>
<g>
	<g>
		<path fill="#000000" d="M501.317,315.586c-5.899,0-10.684,4.783-10.684,10.683v3.876c0,5.899,4.784,10.683,10.684,10.683S512,336.045,512,330.146
			v-3.876C512,320.37,507.217,315.586,501.317,315.586z"/>
	</g>
</g>
<g>
	<g>
		<path fill="#000000" d="M425.154,183.815c-5.899,0-10.684,4.783-10.684,10.683v6.536c0,5.899,4.784,10.683,10.684,10.683
			c5.899,0,10.683-4.784,10.683-10.683v-6.536C435.837,188.598,431.053,183.815,425.154,183.815z"/>
	</g>
</g>
</svg>
