<?xml version="1.0" encoding="UTF-8" standalone="no"?>
<!-- Uploaded to: SVG Repo, www.svgrepo.com, Generator: SVG Repo Mixer Tools -->

<svg
   height="800"
   width="850"
   version="1.1"
   id="Layer_1"
   viewBox="0 0 544.00104 512.001"
   xml:space="preserve"
   sodipodi:docname="zensus2pgsql-logo.svg"
   inkscape:version="1.4.2 (2aeb623e1d, 2025-05-12)"
   xmlns:inkscape="http://www.inkscape.org/namespaces/inkscape"
   xmlns:sodipodi="http://sodipodi.sourceforge.net/DTD/sodipodi-0.dtd"
   xmlns="http://www.w3.org/2000/svg"
   xmlns:svg="http://www.w3.org/2000/svg"><sodipodi:namedview
   id="namedview11"
   pagecolor="#ffffff"
   bordercolor="#000000"
   borderopacity="0.25"
   inkscape:showpageshadow="2"
   inkscape:pageopacity="0.0"
   inkscape:pagecheckerboard="0"
   inkscape:deskcolor="#d1d1d1"
   showguides="true"
   inkscape:zoom="0.87"
   inkscape:cx="410.34483"
   inkscape:cy="421.26437"
   inkscape:window-width="1854"
   inkscape:window-height="1011"
   inkscape:window-x="0"
   inkscape:window-y="0"
   inkscape:window-maximized="1"
   inkscape:current-layer="Layer_1"
   showgrid="false" />
<defs
   id="defs6">
	<!-- Linear gradient with German flag colors: black, red, gold (left to right) -->
	<linearGradient
   id="germanFlag"
   x1="-2.0877147"
   y1="103.05551"
   x2="419.63144"
   y2="103.05551"
   gradientTransform="matrix(1.2262236,0,0,0.81551193,12.800024,0)"
   gradientUnits="userSpaceOnUse">
		<stop
   offset="0%"
   style="stop-color:#000000;stop-opacity:1"
   id="stop1" />
		<stop
   offset="33.33%"
   style="stop-color:#000000;stop-opacity:1"
   id="stop2" />
		<stop
   offset="33.33%"
   style="stop-color:#DD0000;stop-opacity:1"
   id="stop3" />
		<stop
   offset="66.67%"
   style="stop-color:#DD0000;stop-opacity:1"
   id="stop4" />
		<stop
   offset="66.67%"
   style="stop-color:#FFCE00;stop-opacity:1"
   id="stop5" />
		<stop
   offset="100%"
   style="stop-color:#FFCE00;stop-opacity:1"
   id="stop6" />
	</linearGradient>
</defs>
<g
   id="g7"
   transform="translate(0,-34.560058)">
	<g
   id="g6">
		<path
   fill="url(#germanFlag)"
   stroke="#000000"
   stroke-width="3"
   d="m 514.118,299.729 c 5.899,0 10.684,-4.783 10.684,-10.683 V 216.163 C 524.801,154.393 474.549,104.141 412.78,104.141 h -31.397 c -0.859,-1.01 -1.749,-1.992 -2.686,-2.929 -9.421,-9.421 -21.945,-14.609 -35.263,-14.609 -20.106,0 -39.011,7.831 -53.231,22.051 -11.18,11.18 -18.441,25.356 -21.009,40.735 h -64.195 c -55.055,0 -102.20598,34.462 -121.02598,82.942 h -8.694 c -34.451,-10e-4 -62.478996,28.027 -62.478996,62.478 0,5.901 4.782998,10.683 10.682996,10.683 5.901,0 10.684,-4.783 10.684,-10.683 0,-22.669 18.443,-41.111 41.111,-41.111 h 2.464 c -1.643,8.232 -2.512,16.738 -2.512,25.446 v 97.826 37.745 c 0,5.901 4.783,10.684 10.683,10.684 h 60.96198 60.962 c 5.901,0 10.684,-4.783 10.684,-10.684 V 376.97 321.33 h 32.399 v 55.64 37.745 c 0,5.901 4.783,10.684 10.683,10.684 h 60.962 60.08 c 2.833,0 5.552,-1.126 7.555,-3.13 2.003,-2.004 3.129,-4.722 3.128,-7.556 l -0.033,-137.61 c 15.529,2.253 29.86,9.405 41.155,20.698 13.846,13.847 21.472,32.258 21.472,51.842 v 65.074 c 0,5.901 4.784,10.683 10.684,10.683 h 47.512 c 5.899,0 10.684,-4.783 10.684,-10.683 v -47.341 c 0,-5.901 -4.784,-10.684 -10.684,-10.684 -5.899,0 -10.683,4.783 -10.683,10.684 v 36.657 H 477.29 v -54.391 c 0,-25.29 -9.848,-49.067 -27.729,-66.95 -17.882,-17.881 -41.659,-27.729 -66.95,-27.729 -24.86,0 -48.24,-9.682 -65.827,-27.258 -17.581,-17.593 -27.263,-40.972 -27.263,-65.833 0,-0.526 0.012,-1.05 0.021,-1.508 0.376,-13.806 5.976,-26.805 15.772,-36.601 10.184,-10.184 23.722,-15.792 38.122,-15.792 7.611,0 14.768,2.966 20.154,8.352 1.341,1.34 2.545,2.814 3.578,4.382 0.081,0.123 0.165,0.245 0.25,0.363 2.952,4.583 4.511,9.897 4.511,15.396 v 25.616 c 0,5.901 4.784,10.684 10.683,10.684 5.899,0 10.684,-4.783 10.684,-10.684 v -25.616 c 0,-3.717 -0.409,-7.387 -1.209,-10.955 h 20.695 c 49.987,0 90.654,40.667 90.654,90.654 v 72.883 c -0.002,5.9 4.782,10.683 10.682,10.683 z m -377.925,104.3 H 96.59802 V 387.651 H 136.193 Z m 60.961,0 h -39.595 v -16.378 h 39.595 z m 0,-37.744 h -39.595 v -44.956 h 39.595 z m 114.728,37.744 h -39.596 v -16.378 h 39.596 z m 60.078,0 h -38.711 v -16.378 h 38.706 z m -0.01,-37.744 h -38.701 v -44.956 h 4.37 c 12.94,0 24.853,-4.449 34.318,-11.882 z M 301.674,242.811 c 18.728,18.716 42.795,30.151 68.758,32.88 -4.299,14.036 -17.383,24.272 -32.813,24.272 h -15.053 c -5.899,0 -10.684,4.784 -10.684,10.684 v 55.64 h -39.596 v -55.64 -15.837 c 0,-5.901 -4.783,-10.683 -10.684,-10.683 -5.9,0 -10.683,4.783 -10.683,10.683 v 5.154 H 146.875 c -5.9,0 -10.683,4.784 -10.683,10.683 v 55.64 H 96.59802 v -87.142 c 0,-59.766 48.62898,-108.388 108.40098,-108.388 h 63.495 c 2.076,27.216 13.67,52.531 33.18,72.054 z"
   id="path6"
   style="fill:url(#germanFlag);stroke-width:7.68001484;stroke-dasharray:none" />
	</g>
</g>
<g
   id="g9"
   transform="translate(10.24002,-34.560058)">
	<g
   id="g8">
		<path
   fill="#000000"
   d="m 501.317,315.586 c -5.899,0 -10.684,4.783 -10.684,10.683 v 3.876 c 0,5.899 4.784,10.683 10.684,10.683 5.9,0 10.683,-4.783 10.683,-10.682 v -3.876 c 0,-5.9 -4.783,-10.684 -10.683,-10.684 z"
   id="path7" />
	</g>
</g>
<g
   id="g11"
   transform="translate(0,-34.560058)">
	<g
   id="g10">
		<path
   fill="#000000"
   d="m 425.154,183.815 c -5.899,0 -10.684,4.783 -10.684,10.683 v 6.536 c 0,5.899 4.784,10.683 10.684,10.683 5.899,0 10.683,-4.784 10.683,-10.683 v -6.536 c 0,-5.9 -4.784,-10.683 -10.683,-10.683 z"
   id="path9" />
	</g>
</g>
<path
   style="font-weight:bold;font-size:54.6134px;line-height:1;font-family:'SpaceMono Nerd Font';-inkscape-font-specification:'SpaceMono Nerd Font Bold';stroke-width:5.56801"
   d="m 127.23426,459.92378 v 6.55361 h -23.59299 v -11.46882 l 17.03938,-8.30123 v -0.98305 h -16.7117 v -6.33515 h 22.60994 v 11.14113 l -17.03938,8.41047 v 0.98304 z m 15.18249,-4.75137 q 0.0546,1.2015 0.54614,2.23915 0.54613,0.98304 1.41995,1.74763 0.92842,0.70998 2.07531,1.14688 1.20149,0.3823 2.51221,0.3823 2.56683,0 3.93217,-0.87382 1.36533,-0.92843 1.96608,-2.18453 l 5.89825,3.2768 q -0.49152,1.03765 -1.36534,2.18454 -0.87381,1.09226 -2.29376,2.02069 -1.36534,0.92843 -3.38603,1.52918 -1.96608,0.60074 -4.64214,0.60074 -3.05835,0 -5.57057,-0.98304 -2.51221,-0.98304 -4.36907,-2.83989 -1.80224,-1.85686 -2.8399,-4.53292 -0.98304,-2.67605 -0.98304,-6.06208 v -0.32768 q 0,-3.11297 1.03766,-5.6798 1.09227,-2.56683 2.94912,-4.36907 1.85686,-1.80224 4.31446,-2.78528 2.51222,-1.03766 5.35211,-1.03766 3.49526,0 6.00748,1.25611 2.51221,1.2015 4.15061,3.11296 1.63841,1.85686 2.40299,4.15062 0.76459,2.23915 0.76459,4.36908 v 3.65909 z m 6.499,-10.32193 q -2.62144,0 -4.25985,1.36534 -1.6384,1.31072 -2.12992,3.05835 h 12.77954 q -0.32768,-1.91147 -2.07531,-3.16758 -1.69302,-1.25611 -4.31446,-1.25611 z m 27.74358,21.62691 h -6.88129 v -27.08825 h 6.88129 v 4.04139 h 0.98304 q 0.92843,-2.29376 3.00374,-3.54987 2.07531,-1.25611 4.86059,-1.25611 1.96608,0 3.6591,0.65536 1.74763,0.60075 3.05835,1.91147 1.31072,1.31072 2.02069,3.33142 0.76459,2.0207 0.76459,4.80598 v 17.14861 h -6.88129 v -15.40098 q 0,-2.89451 -1.41994,-4.53291 -1.36534,-1.69302 -3.98678,-1.69302 -3.05835,0 -4.58753,2.07531 -1.47456,2.0207 -1.47456,5.46134 z m 35.17101,-19.44237 q 0,1.31072 1.36533,1.91147 1.36534,0.54613 4.96982,0.92842 4.15062,0.43691 6.77206,2.51222 2.62145,2.0207 2.62145,5.67979 v 0.32768 q 0,4.04139 -2.94913,6.44438 -2.94912,2.40299 -8.30123,2.40299 -3.16758,0 -5.40673,-0.8192 -2.23915,-0.8192 -3.71371,-2.02069 -1.47456,-1.25611 -2.29377,-2.73067 -0.76458,-1.52918 -1.03765,-2.94913 l 6.33515,-2.07531 q 0.43691,1.74763 1.80225,3.05835 1.41994,1.31073 4.31446,1.31073 2.56682,0 3.49525,-0.76459 0.98304,-0.8192 0.98304,-1.74763 0,-0.54613 -0.27306,-0.98304 -0.21846,-0.49152 -0.87382,-0.87382 -0.65536,-0.4369 -1.80224,-0.70997 -1.09227,-0.27307 -2.78528,-0.43691 -4.58753,-0.38229 -7.3182,-2.34837 -2.67606,-2.0207 -2.67606,-5.89825 v -0.32768 q 0,-2.0207 0.87382,-3.54987 0.87381,-1.52918 2.29376,-2.56683 1.41995,-1.09227 3.27681,-1.6384 1.85685,-0.54614 3.82293,-0.54614 2.56683,0 4.42369,0.65536 1.91147,0.60075 3.22219,1.63841 1.31072,0.98304 2.12992,2.23914 0.8192,1.2015 1.25611,2.34838 l -6.22593,2.51222 q -0.49152,-1.47456 -1.69301,-2.29377 -1.2015,-0.87381 -3.11297,-0.87381 -1.74762,0 -2.62144,0.65536 -0.87381,0.60075 -0.87381,1.52918 z m 43.14455,-7.64588 h 6.88129 v 27.08825 h -6.88129 v -3.93217 h -0.98304 q -1.80224,4.69675 -7.7551,4.69675 -2.0207,0 -3.76833,-0.65536 -1.74763,-0.65536 -3.05835,-2.02069 -1.31072,-1.36534 -2.07531,-3.38603 -0.70997,-2.07531 -0.70997,-4.8606 v -16.93015 h 6.88129 v 15.51021 q 0,2.89451 1.36533,4.53291 1.36534,1.58379 4.09601,1.58379 3.11296,0 4.53291,-1.96609 1.47456,-2.02069 1.47456,-5.46134 z m 23.70219,7.64588 q 0,1.31072 1.36533,1.91147 1.36534,0.54613 4.96982,0.92842 4.15062,0.43691 6.77206,2.51222 2.62145,2.0207 2.62145,5.67979 v 0.32768 q 0,4.04139 -2.94913,6.44438 -2.94912,2.40299 -8.30123,2.40299 -3.16758,0 -5.40673,-0.8192 -2.23915,-0.8192 -3.71371,-2.02069 -1.47456,-1.25611 -2.29376,-2.73067 -0.76459,-1.52918 -1.03766,-2.94913 l 6.33516,-2.07531 q 0.4369,1.74763 1.80224,3.05835 1.41995,1.31073 4.31446,1.31073 2.56683,0 3.49525,-0.76459 0.98304,-0.8192 0.98304,-1.74763 0,-0.54613 -0.27306,-0.98304 -0.21846,-0.49152 -0.87382,-0.87382 -0.65536,-0.4369 -1.80224,-0.70997 -1.09227,-0.27307 -2.78528,-0.43691 -4.58753,-0.38229 -7.3182,-2.34837 -2.67605,-2.0207 -2.67605,-5.89825 v -0.32768 q 0,-2.0207 0.87381,-3.54987 0.87381,-1.52918 2.29376,-2.56683 1.41995,-1.09227 3.27681,-1.6384 1.85685,-0.54614 3.82293,-0.54614 2.56683,0 4.42369,0.65536 1.91147,0.60075 3.22219,1.63841 1.31072,0.98304 2.12992,2.23914 0.8192,1.2015 1.25611,2.34838 l -6.22593,2.51222 q -0.49152,-1.47456 -1.69301,-2.29377 -1.2015,-0.87381 -3.11297,-0.87381 -1.74762,0 -2.62144,0.65536 -0.87381,0.60075 -0.87381,1.52918 z m 50.95428,12.56108 v 6.88129 h -26.86979 v -7.53665 q 0,-3.00374 0.87382,-5.13366 0.92842,-2.12992 2.56683,-3.60449 1.69301,-1.47456 4.04139,-2.40299 2.34837,-0.98304 5.2975,-1.6384 2.18453,-0.49152 3.54987,-1.09227 1.41995,-0.65536 2.23915,-1.41994 0.8192,-0.81921 1.09227,-1.74763 0.32768,-0.98304 0.32768,-2.18454 0,-2.29376 -1.69302,-3.82294 -1.6384,-1.52917 -4.58753,-1.52917 -3.11296,0 -4.96981,1.91147 -1.85686,1.85685 -1.85686,5.18827 v 2.40299 h -7.20897 v -3.05835 q 0,-2.67606 0.92843,-5.07905 0.98304,-2.4576 2.73067,-4.25984 1.80224,-1.85686 4.36907,-2.89451 2.56683,-1.09227 5.78902,-1.09227 3.44065,0 6.00748,1.03765 2.56682,0.98305 4.25984,2.62145 1.74763,1.6384 2.56683,3.82293 0.87381,2.12993 0.87381,4.42369 v 0.65536 q 0,4.80598 -2.73067,7.97356 -2.67605,3.16757 -8.79275,4.58752 -2.56683,0.60075 -4.25985,1.25611 -1.6384,0.60075 -2.56683,1.36534 -0.92843,0.76458 -1.31072,1.69301 -0.32768,0.87382 -0.32768,2.0207 v 0.65536 z m 12.7249,17.80397 h -6.88129 v -38.01093 h 6.88129 v 3.93217 h 0.98304 q 1.09227,-2.23915 3.16757,-3.44065 2.07531,-1.25611 5.2975,-1.25611 2.40299,0 4.53292,0.92843 2.18453,0.92843 3.76832,2.73067 1.6384,1.74763 2.56683,4.31446 0.98304,2.56683 0.98304,5.84363 v 0.98304 q 0,3.33142 -0.92843,5.89825 -0.92842,2.56683 -2.51221,4.36907 -1.58379,1.74763 -3.76833,2.67606 -2.12992,0.87381 -4.64214,0.87381 -1.85685,0 -3.22219,-0.38229 -1.36533,-0.38229 -2.40299,-1.03765 -0.98304,-0.65537 -1.69301,-1.47457 -0.65536,-0.87381 -1.14688,-1.80224 h -0.98304 z m 7.20896,-16.7117 q 3.2222,0 5.18828,-1.96609 2.02069,-2.02069 2.02069,-5.46134 v -0.65536 q 0,-3.44064 -2.02069,-5.40672 -1.96608,-2.0207 -5.18828,-2.0207 -3.22219,0 -5.24288,2.07531 -1.96608,2.0207 -1.96608,5.35211 v 0.65536 q 0,3.33142 1.96608,5.40673 2.02069,2.0207 5.24288,2.0207 z m 40.08621,1.85685 h -0.98304 q -0.43691,0.92843 -1.09227,1.80224 -0.60075,0.8192 -1.6384,1.47457 -0.98304,0.65536 -2.40299,1.03765 -1.36534,0.38229 -3.33142,0.38229 -2.51221,0 -4.69675,-0.87381 -2.12992,-0.92843 -3.76833,-2.67606 -1.58378,-1.80224 -2.51221,-4.36907 -0.87382,-2.56683 -0.87382,-5.89825 v -0.98304 q 0,-3.2768 0.92843,-5.84363 0.98304,-2.56683 2.62144,-4.31446 1.69302,-1.80224 3.87756,-2.73067 2.23915,-0.92843 4.69675,-0.92843 3.2768,0 5.18827,1.25611 1.91147,1.2015 3.00374,3.44065 h 0.98304 v -3.93217 h 6.88129 v 33.75108 q 0,1.85686 -1.2015,3.05835 -1.14688,1.2015 -3.00373,1.2015 h -18.24088 v -6.55361 h 14.09026 q 1.47456,0 1.47456,-1.6384 z m -7.20897,-1.85685 q 3.22219,0 5.18827,-2.0207 2.0207,-2.07531 2.0207,-5.40673 v -0.65536 q 0,-3.33141 -2.0207,-5.35211 -1.96608,-2.07531 -5.18827,-2.07531 -3.22219,0 -5.24289,2.0207 -1.96608,1.96608 -1.96608,5.40672 v 0.65536 q 0,3.44065 1.96608,5.46134 2.0207,1.96609 5.24289,1.96609 z m 29.92811,-13.65335 q 0,1.31072 1.36534,1.91147 1.36533,0.54613 4.96982,0.92842 4.15062,0.43691 6.77206,2.51222 2.62144,2.0207 2.62144,5.67979 v 0.32768 q 0,4.04139 -2.94912,6.44438 -2.94912,2.40299 -8.30124,2.40299 -3.16757,0 -5.40672,-0.8192 -2.23915,-0.8192 -3.71372,-2.02069 -1.47456,-1.25611 -2.29376,-2.73067 -0.76459,-1.52918 -1.03765,-2.94913 l 6.33515,-2.07531 q 0.43691,1.74763 1.80224,3.05835 1.41995,1.31073 4.31446,1.31073 2.56683,0 3.49526,-0.76459 0.98304,-0.8192 0.98304,-1.74763 0,-0.54613 -0.27307,-0.98304 -0.21845,-0.49152 -0.87381,-0.87382 -0.65536,-0.4369 -1.80224,-0.70997 -1.09227,-0.27307 -2.78529,-0.43691 -4.58752,-0.38229 -7.31819,-2.34837 -2.67606,-2.0207 -2.67606,-5.89825 v -0.32768 q 0,-2.0207 0.87382,-3.54987 0.87381,-1.52918 2.29376,-2.56683 1.41995,-1.09227 3.2768,-1.6384 1.85686,-0.54614 3.82294,-0.54614 2.56683,0 4.42369,0.65536 1.91147,0.60075 3.22219,1.63841 1.31072,0.98304 2.12992,2.23914 0.8192,1.2015 1.25611,2.34838 l -6.22593,2.51222 q -0.49152,-1.47456 -1.69301,-2.29377 -1.2015,-0.87381 -3.11297,-0.87381 -1.74763,0 -2.62144,0.65536 -0.87382,0.60075 -0.87382,1.52918 z m 44.23683,15.5102 h -0.98304 q -0.43691,0.92843 -1.09227,1.80224 -0.60075,0.8192 -1.6384,1.47457 -0.98305,0.65536 -2.40299,1.03765 -1.36534,0.38229 -3.33142,0.38229 -2.51222,0 -4.69675,-0.87381 -2.12993,-0.92843 -3.76833,-2.67606 -1.58379,-1.80224 -2.51221,-4.36907 -0.87382,-2.56683 -0.87382,-5.89825 v -0.98304 q 0,-3.2768 0.92843,-5.84363 0.98304,-2.56683 2.62144,-4.31446 1.69302,-1.80224 3.87755,-2.73067 2.23915,-0.92843 4.69676,-0.92843 3.2768,0 5.18827,1.25611 1.91147,1.2015 3.00374,3.44065 h 0.98304 v -3.93217 h 6.88129 v 38.01093 h -6.88129 z m -7.20897,-1.85685 q 3.22219,0 5.18827,-2.0207 2.0207,-2.07531 2.0207,-5.40673 v -0.65536 q 0,-3.33141 -2.0207,-5.35211 -1.96608,-2.07531 -5.18827,-2.07531 -3.22219,0 -5.24289,2.0207 -1.96608,1.96608 -1.96608,5.40672 v 0.65536 q 0,3.44065 1.96608,5.46134 2.0207,1.96609 5.24289,1.96609 z m 21.02613,-0.76459 h 9.50273 v -25.12217 h -9.17505 v -6.5536 h 16.05634 v 31.67577 h 8.84737 v 6.55361 h -25.23139 z"
   id="text11"
   aria-label="zensus2pgsql" /></svg>
